<mxfile host="app.diagrams.net" modified="2021-08-11T16:43:15.209Z" agent="5.0 (Macintosh; Intel Mac OS X 10_15_7) AppleWebKit/537.36 (KHTML, like Gecko) Chrome/92.0.4515.131 Safari/537.36" etag="aB6A2cNDgTqdx4TekRl9" version="14.9.5" type="github" pages="2">
  <diagram id="ZWPdKZuckD9OAUi48JRB" name="Page-1">
    <mxGraphModel dx="946" dy="557" grid="1" gridSize="10" guides="1" tooltips="1" connect="1" arrows="1" fold="1" page="1" pageScale="1" pageWidth="1169" pageHeight="1654" math="0" shadow="0">
      <root>
        <mxCell id="0" />
        <mxCell id="1" parent="0" />
        <mxCell id="wxne2rxK0kkFJ4Awq3mV-4" value="" style="edgeStyle=orthogonalEdgeStyle;rounded=0;orthogonalLoop=1;jettySize=auto;html=1;" parent="1" source="wxne2rxK0kkFJ4Awq3mV-2" target="wxne2rxK0kkFJ4Awq3mV-3" edge="1">
          <mxGeometry relative="1" as="geometry" />
        </mxCell>
        <mxCell id="wxne2rxK0kkFJ4Awq3mV-2" value="" style="ellipse;whiteSpace=wrap;html=1;aspect=fixed;" parent="1" vertex="1">
          <mxGeometry x="517" y="70" width="30" height="30" as="geometry" />
        </mxCell>
        <mxCell id="wxne2rxK0kkFJ4Awq3mV-6" value="" style="edgeStyle=orthogonalEdgeStyle;rounded=0;orthogonalLoop=1;jettySize=auto;html=1;" parent="1" source="wxne2rxK0kkFJ4Awq3mV-3" target="wxne2rxK0kkFJ4Awq3mV-5" edge="1">
          <mxGeometry relative="1" as="geometry" />
        </mxCell>
        <mxCell id="wxne2rxK0kkFJ4Awq3mV-3" value="监管人员填写事件详情" style="whiteSpace=wrap;html=1;" parent="1" vertex="1">
          <mxGeometry x="472" y="140" width="120" height="60" as="geometry" />
        </mxCell>
        <mxCell id="wxne2rxK0kkFJ4Awq3mV-10" value="" style="edgeStyle=orthogonalEdgeStyle;rounded=0;orthogonalLoop=1;jettySize=auto;html=1;" parent="1" source="wxne2rxK0kkFJ4Awq3mV-5" target="wxne2rxK0kkFJ4Awq3mV-9" edge="1">
          <mxGeometry relative="1" as="geometry" />
        </mxCell>
        <mxCell id="wxne2rxK0kkFJ4Awq3mV-5" value="指定部门负责人进行事件处理" style="whiteSpace=wrap;html=1;" parent="1" vertex="1">
          <mxGeometry x="472" y="260" width="120" height="60" as="geometry" />
        </mxCell>
        <mxCell id="wxne2rxK0kkFJ4Awq3mV-12" value="" style="edgeStyle=orthogonalEdgeStyle;rounded=0;orthogonalLoop=1;jettySize=auto;html=1;" parent="1" source="wxne2rxK0kkFJ4Awq3mV-9" target="wxne2rxK0kkFJ4Awq3mV-11" edge="1">
          <mxGeometry relative="1" as="geometry" />
        </mxCell>
        <mxCell id="wxne2rxK0kkFJ4Awq3mV-9" value="部门负责人查看事件" style="whiteSpace=wrap;html=1;" parent="1" vertex="1">
          <mxGeometry x="472" y="380" width="120" height="60" as="geometry" />
        </mxCell>
        <mxCell id="wxne2rxK0kkFJ4Awq3mV-14" value="" style="edgeStyle=orthogonalEdgeStyle;rounded=0;orthogonalLoop=1;jettySize=auto;html=1;" parent="1" source="wxne2rxK0kkFJ4Awq3mV-11" target="wxne2rxK0kkFJ4Awq3mV-13" edge="1">
          <mxGeometry relative="1" as="geometry" />
        </mxCell>
        <mxCell id="wxne2rxK0kkFJ4Awq3mV-44" value="是" style="edgeLabel;html=1;align=center;verticalAlign=middle;resizable=0;points=[];" parent="wxne2rxK0kkFJ4Awq3mV-14" vertex="1" connectable="0">
          <mxGeometry x="-0.3824" y="2" relative="1" as="geometry">
            <mxPoint as="offset" />
          </mxGeometry>
        </mxCell>
        <mxCell id="wxne2rxK0kkFJ4Awq3mV-42" value="" style="edgeStyle=orthogonalEdgeStyle;rounded=0;orthogonalLoop=1;jettySize=auto;html=1;endArrow=classic;endFill=1;" parent="1" source="wxne2rxK0kkFJ4Awq3mV-11" target="wxne2rxK0kkFJ4Awq3mV-41" edge="1">
          <mxGeometry relative="1" as="geometry">
            <Array as="points">
              <mxPoint x="700" y="535" />
              <mxPoint x="700" y="290" />
            </Array>
          </mxGeometry>
        </mxCell>
        <mxCell id="wxne2rxK0kkFJ4Awq3mV-43" value="否" style="edgeLabel;html=1;align=center;verticalAlign=middle;resizable=0;points=[];" parent="wxne2rxK0kkFJ4Awq3mV-42" vertex="1" connectable="0">
          <mxGeometry x="-0.0674" y="1" relative="1" as="geometry">
            <mxPoint as="offset" />
          </mxGeometry>
        </mxCell>
        <mxCell id="wxne2rxK0kkFJ4Awq3mV-11" value="确认是否&lt;br&gt;部门管辖范围" style="rhombus;whiteSpace=wrap;html=1;" parent="1" vertex="1">
          <mxGeometry x="479.5" y="500" width="105" height="70" as="geometry" />
        </mxCell>
        <mxCell id="wxne2rxK0kkFJ4Awq3mV-16" value="" style="edgeStyle=orthogonalEdgeStyle;rounded=0;orthogonalLoop=1;jettySize=auto;html=1;" parent="1" source="wxne2rxK0kkFJ4Awq3mV-13" target="wxne2rxK0kkFJ4Awq3mV-15" edge="1">
          <mxGeometry relative="1" as="geometry" />
        </mxCell>
        <mxCell id="wxne2rxK0kkFJ4Awq3mV-13" value="部门填写处理意见" style="whiteSpace=wrap;html=1;" parent="1" vertex="1">
          <mxGeometry x="472" y="630" width="120" height="60" as="geometry" />
        </mxCell>
        <mxCell id="wxne2rxK0kkFJ4Awq3mV-18" value="" style="edgeStyle=orthogonalEdgeStyle;rounded=0;orthogonalLoop=1;jettySize=auto;html=1;" parent="1" source="wxne2rxK0kkFJ4Awq3mV-15" target="wxne2rxK0kkFJ4Awq3mV-17" edge="1">
          <mxGeometry relative="1" as="geometry" />
        </mxCell>
        <mxCell id="wxne2rxK0kkFJ4Awq3mV-15" value="指定人员处理事件" style="whiteSpace=wrap;html=1;" parent="1" vertex="1">
          <mxGeometry x="472" y="750" width="120" height="60" as="geometry" />
        </mxCell>
        <mxCell id="wxne2rxK0kkFJ4Awq3mV-24" value="" style="edgeStyle=orthogonalEdgeStyle;rounded=0;orthogonalLoop=1;jettySize=auto;html=1;" parent="1" source="wxne2rxK0kkFJ4Awq3mV-17" target="wxne2rxK0kkFJ4Awq3mV-23" edge="1">
          <mxGeometry relative="1" as="geometry" />
        </mxCell>
        <mxCell id="wxne2rxK0kkFJ4Awq3mV-17" value="人员查看事件详情" style="whiteSpace=wrap;html=1;" parent="1" vertex="1">
          <mxGeometry x="472" y="870" width="120" height="60" as="geometry" />
        </mxCell>
        <mxCell id="wxne2rxK0kkFJ4Awq3mV-26" value="" style="edgeStyle=orthogonalEdgeStyle;rounded=0;orthogonalLoop=1;jettySize=auto;html=1;endArrow=classic;endFill=1;entryX=1;entryY=0.5;entryDx=0;entryDy=0;" parent="1" source="wxne2rxK0kkFJ4Awq3mV-23" target="wxne2rxK0kkFJ4Awq3mV-15" edge="1">
          <mxGeometry relative="1" as="geometry">
            <Array as="points">
              <mxPoint x="697" y="1040" />
              <mxPoint x="697" y="780" />
            </Array>
          </mxGeometry>
        </mxCell>
        <mxCell id="wxne2rxK0kkFJ4Awq3mV-45" value="否" style="edgeLabel;html=1;align=center;verticalAlign=middle;resizable=0;points=[];" parent="wxne2rxK0kkFJ4Awq3mV-26" vertex="1" connectable="0">
          <mxGeometry x="0.052" y="1" relative="1" as="geometry">
            <mxPoint as="offset" />
          </mxGeometry>
        </mxCell>
        <mxCell id="wxne2rxK0kkFJ4Awq3mV-34" value="" style="edgeStyle=orthogonalEdgeStyle;rounded=0;orthogonalLoop=1;jettySize=auto;html=1;endArrow=classic;endFill=1;" parent="1" source="wxne2rxK0kkFJ4Awq3mV-23" target="wxne2rxK0kkFJ4Awq3mV-33" edge="1">
          <mxGeometry relative="1" as="geometry" />
        </mxCell>
        <mxCell id="wxne2rxK0kkFJ4Awq3mV-46" value="是" style="edgeLabel;html=1;align=center;verticalAlign=middle;resizable=0;points=[];" parent="wxne2rxK0kkFJ4Awq3mV-34" vertex="1" connectable="0">
          <mxGeometry x="-0.2072" relative="1" as="geometry">
            <mxPoint as="offset" />
          </mxGeometry>
        </mxCell>
        <mxCell id="wxne2rxK0kkFJ4Awq3mV-23" value="确认是否&lt;br&gt;接受任务" style="rhombus;whiteSpace=wrap;html=1;" parent="1" vertex="1">
          <mxGeometry x="492" y="1000" width="80" height="80" as="geometry" />
        </mxCell>
        <mxCell id="wxne2rxK0kkFJ4Awq3mV-36" value="" style="edgeStyle=orthogonalEdgeStyle;rounded=0;orthogonalLoop=1;jettySize=auto;html=1;endArrow=classic;endFill=1;" parent="1" source="wxne2rxK0kkFJ4Awq3mV-33" target="wxne2rxK0kkFJ4Awq3mV-35" edge="1">
          <mxGeometry relative="1" as="geometry" />
        </mxCell>
        <mxCell id="wxne2rxK0kkFJ4Awq3mV-33" value="处理事件并填写处理结果" style="whiteSpace=wrap;html=1;" parent="1" vertex="1">
          <mxGeometry x="472" y="1149" width="120" height="60" as="geometry" />
        </mxCell>
        <mxCell id="wxne2rxK0kkFJ4Awq3mV-38" value="" style="edgeStyle=orthogonalEdgeStyle;rounded=0;orthogonalLoop=1;jettySize=auto;html=1;endArrow=classic;endFill=1;" parent="1" source="wxne2rxK0kkFJ4Awq3mV-35" target="wxne2rxK0kkFJ4Awq3mV-37" edge="1">
          <mxGeometry relative="1" as="geometry" />
        </mxCell>
        <mxCell id="wxne2rxK0kkFJ4Awq3mV-48" value="满意" style="edgeLabel;html=1;align=center;verticalAlign=middle;resizable=0;points=[];" parent="wxne2rxK0kkFJ4Awq3mV-38" vertex="1" connectable="0">
          <mxGeometry x="-0.2345" relative="1" as="geometry">
            <mxPoint as="offset" />
          </mxGeometry>
        </mxCell>
        <mxCell id="wxne2rxK0kkFJ4Awq3mV-40" value="" style="edgeStyle=orthogonalEdgeStyle;rounded=0;orthogonalLoop=1;jettySize=auto;html=1;endArrow=classic;endFill=1;" parent="1" source="wxne2rxK0kkFJ4Awq3mV-35" target="wxne2rxK0kkFJ4Awq3mV-39" edge="1">
          <mxGeometry relative="1" as="geometry">
            <Array as="points">
              <mxPoint x="700" y="1319" />
              <mxPoint x="700" y="1179" />
            </Array>
          </mxGeometry>
        </mxCell>
        <mxCell id="wxne2rxK0kkFJ4Awq3mV-47" value="不满意" style="edgeLabel;html=1;align=center;verticalAlign=middle;resizable=0;points=[];" parent="wxne2rxK0kkFJ4Awq3mV-40" vertex="1" connectable="0">
          <mxGeometry x="0.0807" y="-1" relative="1" as="geometry">
            <mxPoint as="offset" />
          </mxGeometry>
        </mxCell>
        <mxCell id="wxne2rxK0kkFJ4Awq3mV-35" value="监管人员审&lt;br&gt;核处理结果" style="rhombus;whiteSpace=wrap;html=1;" parent="1" vertex="1">
          <mxGeometry x="492" y="1279" width="80" height="80" as="geometry" />
        </mxCell>
        <mxCell id="wxne2rxK0kkFJ4Awq3mV-37" value="归档" style="whiteSpace=wrap;html=1;" parent="1" vertex="1">
          <mxGeometry x="472" y="1430" width="120" height="60" as="geometry" />
        </mxCell>
        <mxCell id="wxne2rxK0kkFJ4Awq3mV-39" value="" style="shape=waypoint;size=6;pointerEvents=1;points=[];fillColor=#ffffff;resizable=0;rotatable=0;perimeter=centerPerimeter;snapToPoint=1;" parent="1" vertex="1">
          <mxGeometry x="572" y="1159" width="40" height="40" as="geometry" />
        </mxCell>
        <mxCell id="wxne2rxK0kkFJ4Awq3mV-41" value="" style="shape=waypoint;size=6;pointerEvents=1;points=[];fillColor=#ffffff;resizable=0;rotatable=0;perimeter=centerPerimeter;snapToPoint=1;" parent="1" vertex="1">
          <mxGeometry x="572" y="270" width="40" height="40" as="geometry" />
        </mxCell>
      </root>
    </mxGraphModel>
  </diagram>
  <diagram id="KZWWj1SHFoaH4PxJsILb" name="Page-2">
    <mxGraphModel dx="946" dy="557" grid="1" gridSize="10" guides="1" tooltips="1" connect="1" arrows="1" fold="1" page="1" pageScale="1" pageWidth="1169" pageHeight="1654" math="0" shadow="0">
      <root>
        <mxCell id="-W_iyrEODEhEeQwRqPFU-0" />
        <mxCell id="-W_iyrEODEhEeQwRqPFU-1" parent="-W_iyrEODEhEeQwRqPFU-0" />
      </root>
    </mxGraphModel>
  </diagram>
</mxfile>
